# xmcd CD database file
#
# Track frame offsets:
#	150
#	19810
#	29220
#	56627
#	78595
#	98890
#	121280
#	135410
#	151500
#	169897
#	187052
#	197867
#	212802
#	231887
#	251922
#	257862
#	275110
#
# Disc length: 3924 seconds
#
# Revision: 0
# Processed by: cddbd v1.4PL0 Copyright (c) Steve Scherf et al.
# Submitted via: CDex 1.50
#
DISCID=000f5211
DTITLE=The Hopkins Brothers - Lightnin', Joel and John Henry
DYEAR=1964
DGENRE=Blues
TTITLE0=See About My Brother John Henry (Lightnin')
TTITLE1=Hot Blooded Woman (John Henry)
TTITLE2=Black Hannah (Lightnin' and John Henry)
TTITLE3=I Want To Go Fishing (John Henry)
TTITLE4=Doin' Little Heiffer (John Henry)
TTITLE5=Hey, Baby Hey (John Henry)
TTITLE6=Saddle Up My Grey Mare (John Henry)
TTITLE7=Tell Me, Tell Me (John Henry)
TTITLE8=Little Girl (Lightnin')
TTITLE9=I Got A Brother In Waxahachie (Lightnin')
TTITLE10=Matchbox Blues (Joel)
TTITLE11=Home With Mama (Joel)
TTITLE12=Come Down To My House (Lightnin')
TTITLE13=Grosebeck Blues (Lightnin' and Joel)
TTITLE14=The Dice Game (told by Lightnin')
TTITLE15=I Walked From Dallas (Joel)
TTITLE16=Two Brothers Playing - Going Back To Baden-Baden (Lightnin' and Joel)
EXTD=YEAR: 1964
EXTT0=
EXTT1=
EXTT2=
EXTT3=
EXTT4=
EXTT5=
EXTT6=
EXTT7=
EXTT8=
EXTT9=
EXTT10=
EXTT11=
EXTT12=
EXTT13=
EXTT14=
EXTT15=
EXTT16=
PLAYORDER=
